<svg width="97" height="115" viewBox="0 0 97 115" fill="none" xmlns="http://www.w3.org/2000/svg">
<path d="M80.7733 60.7735C80.718 51.3472 84.9889 44.2429 93.6135 39.0045C88.7898 32.0937 81.492 28.2928 71.8722 27.5602C62.7638 26.8415 52.7984 32.8677 49.1495 32.8677C45.2933 32.8677 36.4751 27.809 29.5367 27.809C15.2176 28.0302 0 39.2256 0 62.0036C0 68.7347 1.23012 75.687 3.69036 82.8465C6.9799 92.2729 18.8388 115.369 31.2091 114.996C37.6776 114.843 42.2526 110.407 50.6699 110.407C58.8385 110.407 63.0679 114.996 70.2827 114.996C82.7636 114.816 93.4892 93.8209 96.6128 84.3669C79.8749 76.4748 80.7733 61.2572 80.7733 60.7735ZM66.2468 18.6177C73.2544 10.2971 72.6186 2.72285 72.4112 0C66.2192 0.359361 59.0596 4.21558 54.9822 8.95638C50.4902 14.0427 47.8503 20.3315 48.417 27.422C55.1066 27.9334 61.2158 24.4918 66.2468 18.6177Z" fill="#F1F1F1"/>
</svg>
