<svg width="117" height="115" viewBox="0 0 117 115" fill="none" xmlns="http://www.w3.org/2000/svg">
<path fill-rule="evenodd" clip-rule="evenodd" d="M111.115 69.9576C110.604 69.7606 110.027 69.9317 109.542 70.0624C110.04 70.0757 110.603 70.0365 111.115 69.9576Z" fill="#CC2229"/>
<path fill-rule="evenodd" clip-rule="evenodd" d="M47.7913 99.093H47.8131V99.1678H47.7913V99.093Z" fill="black"/>
<path fill-rule="evenodd" clip-rule="evenodd" d="M65.7617 25.446L71.4593 20.097C73.2171 18.5341 80.3311 12.6502 82.3646 11.9072C83.5219 11.2338 85.0636 10.1826 86.252 11.4406C87.4829 13.5861 85.8716 15.7091 85.1027 17.5399C84.5837 18.892 84.0283 20.321 83.5067 21.7203C82.9459 22.7065 80.7129 27.284 80.4829 27.7957C79.1818 30.7558 77.0455 33.0604 75.9558 36.173C75.9339 36.4249 75.7941 36.7351 75.9452 36.9631C76.156 37.1315 76.3051 36.8697 76.4828 36.7669C77.2675 35.6488 77.9522 34.4471 78.7768 33.4893C79.1493 33.6331 79.3985 33.2182 79.6663 32.8821C79.8658 32.7966 79.9758 33.1652 80.2085 33.0976C80.581 32.7197 80.8481 32.1464 81.1795 31.6718C81.8516 30.7697 82.3759 29.8139 83.0904 28.9927L83.1448 29.0583C82.9684 29.6827 82.5509 30.2958 82.2592 30.9149C82.3394 31.4564 81.8244 31.6698 81.9073 32.1636L81.9291 32.1643C82.1015 31.9197 82.3732 31.7421 82.6397 31.6917C83.6286 30.3939 84.4843 28.9463 85.4374 27.6936C85.572 27.4788 85.6628 27.7837 85.7278 27.8971C86.0413 28.1019 86.4045 27.6764 86.6935 27.3728C86.8413 26.8889 87.2012 26.5582 87.416 26.1094C88.4195 23.9261 90.1408 22.4407 91.2013 20.2601C92.8232 16.2553 94.5532 15.8205 94.9091 11.0283C95.1212 9.85181 94.9714 8.53213 94.8223 7.44975C94.2284 5.19152 93.3932 2.1631 91.3644 1.70443C90.6876 1.10325 90.1812 0.320459 89.3335 0.217722C85.8384 -0.641955 82.6046 1.21593 79.4635 2.79344C79.1228 2.93528 78.8928 3.22493 78.5342 3.27199C77.4067 3.50398 76.5265 4.7123 75.352 4.72092C72.4913 7.00698 69.4681 8.79527 66.6459 11.2576C66.1242 11.8814 65.5456 12.5031 64.9212 12.806C62.4045 14.8713 59.9395 17.3026 57.5275 19.6098L57.4996 19.7192C54.5872 22.6674 51.6078 25.8344 48.8121 29.0252L48.8088 29.1041L40.3638 38.8826H52.6067C55.0982 36.073 63.0713 28.0402 65.7617 25.446ZM114.967 68.5385C114.77 68.3848 114.441 68.29 114.519 67.934C114.946 67.2467 115.789 67.3759 116.489 67.2818L115.985 67.2222C115.799 67.1161 115.7 66.914 115.646 66.7118C115.514 66.1424 116.15 65.9118 116.434 65.5671C116.084 65.5194 47.3983 65.5671 47.3983 65.5671C47.3108 66.1365 47.5514 66.5693 47.6395 67.0558C47.8364 67.4714 48.0883 67.8505 48.4276 68.1355C48.4389 68.3841 48.3183 68.5743 48.187 68.7632C48.0558 68.9422 47.8145 68.8938 47.6395 68.9057V68.9899C48.1539 69.6773 47.9789 70.6973 48.6139 71.3264C49.0414 72.701 47.7708 73.4845 47.0046 74.2315C47.2783 74.2196 47.4208 74.5642 47.6621 74.5993C48.1545 74.7187 48.6696 74.4814 49.107 74.659C49.6545 75.0269 49.8076 75.691 49.742 76.3313C48.932 76.9358 48.5271 78.0275 47.5852 78.502C45.0996 81.6451 41.8366 84.2188 38.8148 86.5321L31.8949 91.7385C31.1393 92.0945 26.7263 95.4643 25.117 96.377C24.427 96.8045 23.7045 97.1717 22.8833 97.291C22.5545 97.1949 22.4127 96.935 22.2589 96.6388C21.8645 95.9746 22.412 95.286 22.4889 94.6695C23.157 92.5816 23.9119 90.4467 24.8319 88.4297C25.1826 87.7059 25.4782 87.0305 25.8507 86.3299C26.0476 85.8083 26.4088 85.4292 26.3756 84.7882C27.46 83.2233 27.81 81.4794 28.9818 79.9244C29.3981 79.8893 29.4312 79.3432 29.7156 79.1311C30.3287 76.723 31.6318 74.8605 32.9018 72.772C33.033 72.3577 33.3724 72.025 33.3942 71.551C34.3798 70.4236 35.1023 69.0244 35.8685 67.7074C36.3391 66.9955 37.2048 65.5664 37.2048 65.5664H24.9088C24.9088 65.5664 22.9489 68.5027 22.1276 70.0445C21.8426 70.816 21.4489 71.6339 21.0433 72.3809C20.2439 74.433 18.8752 76.3671 18.1527 78.4185C17.9227 79.1059 17.4627 79.77 17.2327 80.4938C16.4228 82.3086 15.5903 83.9816 14.8134 85.7844C14.8353 86.033 14.7153 86.2948 14.6053 86.5314C14.2878 87.409 13.7735 88.2037 13.4772 89.0932C13.3241 89.1761 11.4954 94.6563 11.4848 94.9294C11.1785 95.8785 10.8716 96.827 10.5866 97.8007C10.5104 98.3575 10.1711 100.018 10.0067 100.22C9.78728 101.868 9.2842 103.777 9.92978 105.426C10.0829 106.256 11.441 109.661 11.8241 110.527L11.791 110.55C12.1748 111.369 12.6235 112.139 13.0828 112.911C13.6634 113.681 14.3746 114.642 15.3715 114.678C16.094 115.319 17.1121 114.784 17.9671 114.903C18.854 114.833 19.4996 114.074 20.3102 113.907C22.1058 112.365 27.7888 109.755 28.5112 109.21C28.8181 109.056 39.3404 101.844 39.3404 101.844C43.2822 99.0203 47.2021 95.8653 50.8482 92.3662C52.4907 90.5395 54.4175 89.1403 55.9175 87.2658C56.7281 87.1121 56.7493 85.8182 57.7018 85.9853C58.0418 86.269 58.1074 86.827 57.9974 87.242C57.9755 87.6098 57.658 87.8465 57.6249 88.2024C57.6249 88.2024 58.2049 88.0718 58.3368 88.2375C58.4899 88.9858 57.888 91.026 57.888 91.026C58.3036 90.2545 58.7968 89.2709 59.4642 88.6054C59.5849 88.4993 59.7267 88.5935 59.8593 88.6054C59.9355 88.8188 60.1542 88.9733 60.0661 89.2576C59.4099 90.7761 59.781 92.9111 58.3368 94.0153C58.2493 94.1214 58.1505 94.6914 58.1505 94.8929L57.4387 96.375C56.9018 97.1816 56.8474 98.3442 56.3331 99.2218C56.1362 99.6493 55.8075 100.147 55.7094 100.561L56.0706 100.159C56.2568 99.9933 56.5631 99.9688 56.7274 100.194C57.0125 100.419 56.8481 100.835 56.8918 101.096C56.6181 102.033 56.1037 102.78 55.6543 103.61C55.6762 103.789 55.5012 103.931 55.545 104.086C55.6325 103.919 55.6431 103.789 55.7637 103.635C55.9612 103.468 56.1475 103.017 56.465 103.207C56.7274 103.692 56.4537 104.37 56.3881 104.832C57.4506 103.622 57.9649 102.091 58.7524 100.669C62.2129 95.4967 65.136 89.9456 69.034 84.9877C69.5715 84.4064 69.7677 83.5753 70.4259 83.1378C72.2434 82.7103 99.1339 76.8629 101.905 76.2219C103.218 74.9168 104.992 74.7982 106.581 74.2282L105.923 74.193C105.737 73.9677 105.289 73.8603 105.452 73.458L107.106 72.6633C106.252 72.6401 105.562 72.6984 104.686 72.7229L104.609 72.7693C102.918 72.8046 101.226 72.7493 99.5402 72.6036C98.5652 71.5603 97.0885 72.3431 95.8828 72.1529C95.7522 72.1178 95.5216 72.0223 95.5772 71.8082C95.6535 71.5948 95.8609 71.4768 96.0472 71.4059C99.3434 71.2753 102.398 71.0135 105.661 70.7769C105.135 70.5515 104.238 70.9671 103.745 70.3858C103.712 70.1359 103.646 69.8164 103.931 69.6739C104.686 69.5082 110.786 69.3545 110.786 69.3545C112.154 69.2948 113.501 68.7732 114.836 69.0449C115.165 68.689 115.624 69.141 115.985 68.8792C116.084 68.8792 116.259 68.8912 116.226 68.7367C115.821 68.5041 115.362 68.8355 114.967 68.5385Z" fill="#CC2229"/>
<path fill-rule="evenodd" clip-rule="evenodd" d="M15.0102 58.7737L12.5922 61.2241H2.40206L0 58.8035V45.2542L2.38747 42.8184H12.6075L15.0102 45.2754V48.6889L10.5222 48.683V47.3898H4.47999V56.6527H10.5222V54.2467H7.94852V49.9158H15.0102V58.7737ZM45.5323 61.2758V61.2241H45.5078L45.5323 61.2758ZM60.52 42.8184H56.0546V49.9158H50.0123V42.8184H45.5078L45.5323 61.2241H50.0123V54.2467H56.0546V61.2241H60.5432L60.52 42.8184ZM109.319 42.8184H114.55L107.942 52.0514L114.572 61.2241H109.254L104.042 53.9762V61.2241H99.5614L99.5368 42.8184H104.042V50.1577L109.319 42.8184ZM29.4537 54.2261L37.6077 54.2467V56.6527H31.5654V55.3396H27.0854V58.8035L29.4875 61.2241H39.6783L42.0956 58.7737L42.0943 52.3073L39.7181 49.8992L31.576 49.9012L31.5654 47.3898H37.6077V48.683L42.0956 48.6889V45.2754L39.6929 42.8184H29.4729L27.0854 45.2542L27.0841 51.7962L29.4537 54.2261ZM96.6615 55.3396V58.7737L94.2429 61.2241H84.0521L81.6507 58.8035V45.2542L84.0381 42.8184H94.2588L96.6615 45.2754V48.6531H92.1729V47.3898H86.13V56.6527H92.1729V55.3396H96.6615ZM74.017 56.6527H67.9754V47.3898H74.017V56.6527ZM78.5049 45.2754L76.1022 42.8184H65.8815L63.4941 45.2542V58.8035L65.8968 61.2241H76.0863L78.5043 58.7737V45.2754H78.5049ZM24.5177 54.077V49.8734H17.7297V54.077H24.5177Z" fill="#F1F1F1"/>
</svg>
