<svg width="54" height="55" viewBox="0 0 54 55" fill="none" xmlns="http://www.w3.org/2000/svg">
<path d="M26.6595 13.4318C19.0879 13.4318 12.9772 19.5888 12.9772 27.2178C12.9772 34.8468 19.0879 41.0038 26.6595 41.0038C34.2311 41.0038 40.3418 34.8468 40.3418 27.2178C40.3418 19.5888 34.2311 13.4318 26.6595 13.4318ZM26.6595 36.1777C21.7629 36.1777 17.767 32.1514 17.767 27.2178C17.767 22.2841 21.7629 18.2579 26.6595 18.2579C31.556 18.2579 35.552 22.2841 35.552 27.2178C35.552 32.1514 31.556 36.1777 26.6595 36.1777ZM40.9022 9.65428C39.1344 9.65428 37.7068 11.0927 37.7068 12.8739C37.7068 14.6551 39.1344 16.0936 40.9022 16.0936C42.67 16.0936 44.0976 14.6619 44.0976 12.8739C44.0982 12.451 44.0159 12.0321 43.8555 11.6412C43.6951 11.2503 43.4597 10.8952 43.1629 10.5961C42.866 10.297 42.5136 10.0599 42.1257 9.89828C41.7377 9.73667 41.322 9.65375 40.9022 9.65428ZM53.3304 27.2178C53.3304 23.5075 53.3637 19.8308 53.1569 16.1272C52.9501 11.8254 51.9761 8.00749 48.8541 4.86179C45.7254 1.70937 41.9429 0.734739 37.6734 0.52637C33.991 0.318001 30.3419 0.351609 26.6662 0.351609C22.9837 0.351609 19.3347 0.318001 15.6589 0.52637C11.3895 0.734739 7.60031 1.71609 4.47826 4.86179C1.34954 8.01422 0.382234 11.8254 0.175431 16.1272C-0.0313711 19.8375 0.00198426 23.5142 0.00198426 27.2178C0.00198426 30.9214 -0.0313711 34.6048 0.175431 38.3084C0.382234 42.6102 1.35621 46.4281 4.47826 49.5738C7.60698 52.7262 11.3895 53.7008 15.6589 53.9092C19.3414 54.1176 22.9904 54.084 26.6662 54.084C30.3486 54.084 33.9977 54.1176 37.6734 53.9092C41.9429 53.7008 45.732 52.7195 48.8541 49.5738C51.9828 46.4214 52.9501 42.6102 53.1569 38.3084C53.3704 34.6048 53.3304 30.9281 53.3304 27.2178ZM47.4598 43.0673C46.9728 44.2906 46.3858 45.2048 45.4452 46.1458C44.5046 47.0935 43.604 47.685 42.3898 48.1757C38.8809 49.5805 30.5487 49.2646 26.6595 49.2646C22.7703 49.2646 14.4315 49.5805 10.9225 48.1824C9.70836 47.6917 8.8011 47.1002 7.86715 46.1525C6.92653 45.2048 6.33948 44.2973 5.8525 43.074C4.46492 39.5317 4.77846 31.1365 4.77846 27.2178C4.77846 23.2991 4.46492 14.8971 5.8525 11.3616C6.33948 10.1382 6.92653 9.2241 7.86715 8.28308C8.80777 7.34206 9.70836 6.74384 10.9225 6.25316C14.4315 4.85507 22.7703 5.17099 26.6595 5.17099C30.5487 5.17099 38.8875 4.85507 42.3965 6.25316C43.6106 6.74384 44.5179 7.33534 45.4518 8.28308C46.3925 9.23082 46.9795 10.1382 47.4665 11.3616C48.8541 14.8971 48.5405 23.2991 48.5405 27.2178C48.5405 31.1365 48.8541 39.5317 47.4598 43.0673Z" fill="#C3C3C3"/>
</svg>
