<svg width="54" height="54" viewBox="0 0 54 54" fill="none" xmlns="http://www.w3.org/2000/svg">
<path d="M26.6665 0.178833C11.9388 0.178833 0 12.2079 0 27.0468C0 41.8858 11.9388 53.9149 26.6665 53.9149C41.3942 53.9149 53.333 41.8858 53.333 27.0468C53.333 12.2079 41.3942 0.178833 26.6665 0.178833ZM20.1388 38.1831H14.7388V20.6741H20.1388V38.1831ZM17.4054 18.5246C15.6999 18.5246 14.5971 17.3072 14.5971 15.8015C14.5971 14.2649 15.7332 13.0839 17.4749 13.0839C19.2165 13.0839 20.2832 14.2649 20.3165 15.8015C20.3165 17.3072 19.2165 18.5246 17.4054 18.5246ZM39.8609 38.1831H34.4609V28.4798C34.4609 26.2212 33.6776 24.6875 31.7248 24.6875C30.2331 24.6875 29.347 25.7258 28.9554 26.725C28.8109 27.0804 28.7748 27.5842 28.7748 28.0852V38.1803H23.3721V26.2576C23.3721 24.0718 23.3026 22.2442 23.2304 20.6713H27.922L28.1693 23.1034H28.2776C28.9887 21.9615 30.7304 20.2767 33.6442 20.2767C37.197 20.2767 39.8609 22.6752 39.8609 27.8305V38.1831Z" fill="#C3C3C3"/>
</svg>
