<svg width="35" height="45" viewBox="0 0 35 45" fill="none" xmlns="http://www.w3.org/2000/svg">
<path d="M0.85 1C0.85 0.917157 0.917157 0.85 1 0.85H34C34.0828 0.85 34.15 0.917158 34.15 1V7.11074C34.15 7.14497 34.1383 7.17817 34.1168 7.20482L23.1764 20.7909C22.6309 21.4682 22.6309 22.4341 23.1764 23.1115L34.1168 36.6975C34.1383 36.7242 34.15 36.7574 34.15 36.7916V44C34.15 44.0828 34.0828 44.15 34 44.15H1C0.917158 44.15 0.85 44.0828 0.85 44V36.7916C0.85 36.7574 0.861706 36.7242 0.883167 36.6975L0.221139 36.1644L0.883171 36.6975L11.8236 23.1115C12.3691 22.4341 12.3691 21.4682 11.8236 20.7909L0.883171 7.20482C0.861705 7.17816 0.85 7.14497 0.85 7.11074V1ZM27.0307 40.35C28.5446 40.35 29.4176 38.6308 28.5245 37.4085L18.9937 24.3656C18.2547 23.3542 16.7453 23.3542 16.0063 24.3656L6.47554 37.4085C5.58236 38.6308 6.45536 40.35 7.96925 40.35H17.5H27.0307ZM16.0591 19.7061C16.7996 20.6257 18.2004 20.6257 18.9409 19.7061L28.5184 7.81266C29.493 6.60231 28.6315 4.80235 27.0775 4.80235H7.92253C6.36853 4.80235 5.50698 6.60231 6.48164 7.81266L16.0591 19.7061Z" stroke="#FDA403" stroke-width="1.7"/>
<path d="M18.2886 16.9881C17.8882 17.5017 17.1115 17.5017 16.7112 16.9881L14.8613 14.6148C14.3495 13.958 14.8174 13 15.65 13L19.3497 13C20.1823 13 20.6503 13.958 20.1384 14.6147L18.2886 16.9881Z" fill="#FDA403"/>
<path d="M17.8031 35H23.5265C23.788 35 24.039 35.1024 24.2259 35.2853L25.2478 36.2853C25.8883 36.9121 25.4445 38 24.5484 38H10.2176C9.35622 38 8.89786 36.9835 9.46812 36.338L10.3515 35.338C10.5413 35.1231 10.8142 35 11.1009 35H17.8031Z" fill="#FDA403"/>
</svg>
