<svg width="176" height="23" viewBox="0 0 176 23" fill="none" xmlns="http://www.w3.org/2000/svg">
<path fill-rule="evenodd" clip-rule="evenodd" d="M6.81523 5.8432H16.6652C17.4703 5.8432 18.0788 6.02003 18.4928 6.3737C18.9882 6.78997 19.2364 7.47754 19.2364 8.4342C19.2364 9.39195 18.9882 10.0795 18.4928 10.4947C18.0799 10.8275 17.4703 10.9955 16.6652 10.9955H6.81523V5.8432ZM0 21.7714H6.81523V16.5477H16.6652C20.2996 16.5477 22.705 16.1039 23.8824 15.2132C25.307 14.1577 26.0198 11.8929 26.0198 8.41882C26.0198 4.92388 25.2971 2.64812 23.8517 1.5937C22.6951 0.724913 20.2996 0.289963 16.6652 0.289963H0V21.7714ZM42.4511 6.22103C43.1013 5.7762 45.388 5.55324 49.3124 5.55324C53.2159 5.55324 55.4917 5.7762 56.143 6.22103C56.7933 6.66696 57.1184 8.27603 57.1184 11.0505C57.1184 13.8051 56.7933 15.4098 56.143 15.8645C55.4917 16.3214 53.205 16.5488 49.2817 16.5488C45.3782 16.5488 43.1024 16.3214 42.4511 15.8645C41.7997 15.4098 41.4757 13.8051 41.4757 11.0505C41.4757 8.27603 41.7997 6.66586 42.4511 6.22103ZM61.95 1.64313C60.5463 0.548077 56.3232 0 49.2817 0C42.2193 0 37.9852 0.557962 36.5826 1.67388C35.3019 2.70633 34.6616 5.83661 34.6616 11.0625C34.6616 14.8639 34.8681 17.3626 35.2811 18.562C35.8181 20.0898 37.0977 21.0915 39.122 21.5671C40.7321 21.8977 44.1194 22.0625 49.2817 22.0625C56.344 22.0625 60.5782 21.5243 61.9818 20.4512C63.2823 19.4177 63.9336 16.2874 63.9336 11.0614C63.9325 5.83661 63.2724 2.69754 61.95 1.64313ZM72.5172 0.327312H79.3324V16.2204H94.7894V21.7714H72.5172V0.327312ZM102.116 21.7714V0.363554H108.931V21.7714H102.116ZM129.984 0C136.301 0 140.195 0.51622 141.66 1.54537C142.941 2.41087 143.582 4.75034 143.582 8.5638H136.737C136.737 7.3018 136.396 6.50441 135.714 6.17271C134.867 5.75863 132.957 5.55214 129.984 5.55214C126.659 5.55214 124.706 5.80146 124.13 6.29791C123.551 6.79547 123.263 8.37928 123.263 11.0505C123.263 13.7019 123.551 15.2813 124.13 15.7865C124.706 16.2951 126.659 16.5477 129.984 16.5477C132.998 16.5477 134.883 16.3719 135.636 16.0205C136.388 15.669 136.766 14.8386 136.766 13.536H143.581C143.581 17.3604 142.962 19.7054 141.724 20.5742C140.257 21.5671 136.344 22.0625 129.984 22.0625C123.623 22.0625 119.777 21.5089 118.445 20.404C117.112 19.299 116.448 16.1753 116.448 11.0318C116.448 5.92887 117.087 2.83044 118.368 1.73539C119.75 0.579928 123.623 0 129.984 0ZM152.149 21.7714V0.291061H176V5.47964H158.962V8.45616H175.226V13.6436H158.962V16.5828H176V21.7714H152.149Z" fill="#F1F1F1"/>
</svg>
