<svg width="177" height="115" viewBox="0 0 177 115" fill="none" xmlns="http://www.w3.org/2000/svg">
<path d="M64.0038 18.6149C64.2997 18.6149 64.6002 18.5691 64.8787 18.5072L74.9029 51.0265H74.9121C76.0256 54.6542 81.5606 57.4113 88.2229 57.4113C94.8904 57.4113 100.414 54.6564 101.539 51.0265H101.544L111.56 18.5287C111.794 18.5746 112.055 18.616 112.325 18.616C114.274 18.616 115.848 17.1137 115.848 15.2454C115.848 13.3981 114.277 11.8863 112.325 11.8863C110.385 11.8863 108.802 13.3937 108.802 15.2454C108.802 16.5946 109.62 17.7405 110.812 18.28L99.1995 42.0377L101.061 10.0258C101.088 10.0258 101.114 10.0258 101.14 10.0258C103.081 10.0258 104.668 8.5234 104.668 6.66671C104.668 4.81169 103.085 3.29549 101.14 3.29549C99.2041 3.29549 97.6112 4.81113 97.6112 6.66671C97.6112 8.19894 98.694 9.48187 100.157 9.89201L92.4382 41.1787L88.7104 6.69656C90.4249 6.45612 91.7295 5.05655 91.7295 3.36238C91.7295 1.51066 90.1597 0 88.2107 0C86.2588 0 84.6838 1.50735 84.6838 3.36238C84.6838 5.05655 86.0058 6.46828 87.7145 6.69656L84 41.1124L76.2902 9.88869C77.7731 9.49071 78.8698 8.2028 78.8698 6.66339C78.8698 4.80782 77.2873 3.29273 75.3476 3.29273C73.3945 3.29273 71.8155 4.80782 71.8155 6.66339C71.8155 8.51511 73.3951 10.0225 75.3476 10.0225C75.3638 10.0225 75.3736 10.0225 75.3956 10.0225L77.2613 42.0167L65.624 18.2335C66.7635 17.6731 67.533 16.5477 67.533 15.236C67.533 13.3887 65.9627 11.8775 64.005 11.8775C62.0618 11.8775 60.4868 13.3848 60.4868 15.236C60.4862 17.1109 62.0566 18.6149 64.0038 18.6149ZM88.1574 48.2854C94.254 48.2854 99.1902 49.7762 99.1902 51.6025C99.1902 53.4376 94.2546 54.9157 88.1574 54.9157C82.0603 54.9157 77.1194 53.442 77.1194 51.6025C77.1211 49.7762 82.0608 48.2854 88.1574 48.2854Z" fill="#D3961F"/>
<path d="M32.4164 111.692L30.4454 105.959C29.5171 103.414 28.8666 102.259 27.4267 100.948C26.4764 100.097 25.1518 99.6963 24.1661 99.4108C27.8342 98.83 30.6295 95.6442 30.6295 91.8187C30.6295 87.5728 27.1914 84.1266 22.9456 84.1266C22.903 84.1266 22.8564 84.1348 22.7995 84.1348V84.1266H11.2342H4.26177H0.0681766V86.3713H4.26177V111.708H0V113.965H11.1727H15.5195V111.708H11.2342V99.5349H14.5604C14.6686 99.5379 14.768 99.542 14.8726 99.5487H15.5457C16.6083 99.5866 17.532 99.7409 18.3562 99.9762C19.1267 100.177 19.9463 100.438 20.4851 100.788C21.2171 101.267 22.0014 101.929 22.6918 103.106C22.8687 103.421 23.0301 103.736 23.1844 104.053C24.4511 106.44 25.2128 109.746 26.0565 113.944H31.1846V113.952H35.8006V111.692H32.4164ZM18.5141 97.2712H11.249V86.3564H18.51C21.6364 86.4753 24.1307 88.658 24.1307 91.812C24.1307 94.966 21.6369 97.1318 18.5141 97.2712Z" fill="#F1F1F1"/>
<path d="M53.7269 83.0414C44.7789 83.0414 37.5261 90.307 37.5261 99.0192C37.5261 107.743 44.7789 115 53.7269 115C62.6661 115 69.9153 107.74 69.9153 99.0192C69.9148 90.307 62.6656 83.0414 53.7269 83.0414ZM60.4563 108.252C59.9555 109.002 59.3276 109.672 58.592 110.21C57.3945 111.168 56.0285 111.723 54.5768 111.774C54.3041 111.805 54.0139 111.835 53.7269 111.835C53.4265 111.835 53.1446 111.804 52.8611 111.774C51.4094 111.72 50.0541 111.169 48.8541 110.21C48.118 109.67 47.4875 109.005 46.9903 108.252C45.3084 105.926 44.253 102.668 44.253 99.0504C44.253 95.6473 45.1926 92.5588 46.6899 90.2911C47.5336 88.7835 48.8536 87.5892 50.4703 86.8879C50.4821 86.8828 50.4934 86.8761 50.5088 86.8679C50.5831 86.8367 50.659 86.8069 50.7435 86.7788C50.9558 86.6906 51.1746 86.6178 51.3986 86.5486C52.1337 86.3333 52.919 86.2134 53.7279 86.2134C54.5358 86.2134 55.318 86.3333 56.0526 86.5486C56.2801 86.6178 56.4954 86.6875 56.7159 86.7757C56.7892 86.8105 56.8661 86.8418 56.9501 86.8679C56.9583 86.8828 56.9737 86.8828 56.9881 86.8879C58.5899 87.5887 59.9299 88.782 60.7613 90.2911C62.2699 92.5747 63.1982 95.6585 63.1982 99.0504C63.1936 102.668 62.1428 105.929 60.4563 108.252Z" fill="#F1F1F1"/>
<path d="M101.996 102.348H99.7562V106.852C99.6854 109.552 97.4874 111.722 94.7732 111.722C94.7624 111.722 94.7496 111.718 94.7424 111.718V111.726H87.8746H85.2762V86.4174H89.6154V84.1655H85.2762H84.7985H73.9688V86.4174H78.312V111.728H73.9688V113.984H99.7562H101.666H101.843H101.997V113.975H102.021V106.614H101.997V102.348H101.996Z" fill="#F1F1F1"/>
<path d="M134.106 106.819C134.083 109.545 131.861 111.75 129.124 111.75C129.108 111.75 129.105 111.75 129.096 111.75H121.054H118.04H117.95V99.5851V99.1848H120.211C120.234 99.1848 120.248 99.1848 120.268 99.1848H121.527C123.546 99.2089 125.181 100.849 125.181 102.867C125.181 102.901 125.181 102.927 125.177 102.947H125.181V104.122V104.596H127.232V104.294V99.1848V99.1658V97.3379V97.3297V92.2165V92.1165H125.185V93.5641H125.18C125.18 93.5913 125.185 93.622 125.185 93.6451C125.185 95.6652 123.549 97.1062 121.527 97.1292H120.211H118.806H117.951V86.4338H118.04H124.465C124.496 86.4338 124.531 86.4338 124.561 86.4338H129.143C131.872 86.4497 134.079 88.6472 134.102 91.3614V94.4299H136.373V91.5383V84.1876V84.1758H136.215V84.1727H136.188H136.037H129.095H106.727V86.4282H110.982V111.743H106.727V113.991V113.999H129.095H134.105H136.037H136.188H136.215H136.376V106.645V103.265H134.105L134.106 106.819Z" fill="#F1F1F1"/>
<path d="M174.892 111.831V111.834C172.727 111.781 172.219 111.115 170.548 109.19L160.68 96.9078L167.21 89.1127V89.1168C168.962 87.1115 169.435 86.4174 171.69 86.3836H173.085H173.395V84.204H173.085H166.67H166.37H161.661H161.361V86.3836H161.661H164.002V86.3908C164.009 86.3908 164.009 86.3908 164.009 86.3908C164.579 86.3908 165.037 86.8413 165.037 87.4067C165.037 87.6348 164.963 87.8342 164.848 88.0034L159.058 94.8943L154.515 89.2398L153.567 88.0383C153.425 87.865 153.329 87.642 153.329 87.4037C153.329 86.8408 153.787 86.3867 154.35 86.3785H156.94V84.2009H152.339H145.614H141.891V86.3785H142.607C144.525 86.4687 145.079 87.1212 146.588 88.8553L155.323 99.7312L147.458 109.117V109.097C145.699 111.112 145.221 111.789 142.962 111.832H141.587H141.126V114.003H141.587H149.033H149.499H153.525H153.994V111.832H153.525H150.826H150.822C150.26 111.832 149.795 111.378 149.795 110.799C149.795 110.561 149.884 110.342 150.029 110.168L157.014 101.826L162.816 109.061L163.702 110.161C163.84 110.342 163.937 110.561 163.937 110.8C163.937 111.366 163.475 111.833 162.904 111.833C162.904 111.833 162.904 111.833 162.896 111.833H160.113V114.003H160.136H176.34V111.833H174.891V111.831H174.892Z" fill="#F1F1F1"/>
</svg>
