<svg width="54" height="55" viewBox="0 0 54 55" fill="none" xmlns="http://www.w3.org/2000/svg">
<path d="M27.3334 0.349609C12.6072 0.349609 0.666748 12.3803 0.666748 27.2178C0.666748 42.0553 12.6072 54.086 27.3334 54.086C42.0596 54.086 54.0001 42.0553 54.0001 27.2178C54.0001 12.3803 42.0596 0.349609 27.3334 0.349609ZM40.1489 20.6027C40.1667 20.8846 40.1667 21.1784 40.1667 21.4663C40.1667 30.2704 33.512 40.412 21.3513 40.412C17.6013 40.412 14.1251 39.3145 11.1965 37.4253C11.7322 37.4853 12.2441 37.5093 12.7917 37.5093C15.887 37.5093 18.7322 36.4537 21.0001 34.6665C18.0953 34.6065 15.6548 32.6874 14.8215 30.0485C15.8394 30.1985 16.756 30.1985 17.8037 29.9286C16.308 29.6224 14.9636 28.804 13.999 27.6123C13.0344 26.4206 12.5089 24.9292 12.512 23.3915V23.3075C13.387 23.8053 14.4167 24.1112 15.4941 24.1531C14.5884 23.545 13.8457 22.721 13.3317 21.7544C12.8177 20.7877 12.5484 19.7082 12.5477 18.6116C12.5477 17.3701 12.8691 16.2366 13.4465 15.2531C15.1066 17.3122 17.1782 18.9963 19.5267 20.1959C21.8751 21.3955 24.4477 22.0838 27.0775 22.216C26.1429 17.688 29.5001 14.0236 33.5358 14.0236C35.4406 14.0236 37.1548 14.8272 38.3632 16.1227C39.8572 15.8408 41.2858 15.277 42.5596 14.5214C42.0656 16.0627 41.0298 17.3641 39.6548 18.1858C40.9882 18.0418 42.2739 17.67 43.4644 17.1482C42.5656 18.4796 41.4406 19.6611 40.1489 20.6027Z" fill="#C3C3C3"/>
</svg>
