<svg width="1123" height="1218" viewBox="0 0 1123 1218" fill="none" xmlns="http://www.w3.org/2000/svg">
<path fill-rule="evenodd" clip-rule="evenodd" d="M120.777 347.113C120.777 305.608 140.144 268.626 170.334 244.712C192.73 226.656 221.213 215.846 252.221 215.846L578.249 215.846L578.249 -110.36C578.25 -182.466 636.703 -240.92 708.81 -240.92C780.916 -240.92 839.37 -182.466 839.37 -110.36L839.37 332.442C839.858 337.03 840.108 341.689 840.108 346.406C840.108 389.036 819.677 426.894 788.072 450.722C766.095 467.537 738.619 477.527 708.81 477.527C704.703 477.527 700.641 477.337 696.631 476.966L381.897 476.966L381.897 790.906C382.314 795.151 382.527 799.456 382.527 803.81C382.527 840.038 367.771 872.82 343.942 896.474C320.293 920.268 287.535 934.999 251.337 934.999C246.984 934.999 242.681 934.786 238.438 934.37L-205.36 934.37C-277.466 934.37 -335.92 875.916 -335.92 803.81C-335.92 731.704 -277.466 673.25 -205.36 673.25L120.777 673.25L120.777 347.113Z" fill="#FDA403"/>
</svg>
