<svg width="32" height="30" viewBox="0 0 32 30" fill="none" xmlns="http://www.w3.org/2000/svg">
<path d="M11.1065 29.9999C12.405 29.9999 13.4576 28.9728 13.4576 27.7059C13.4576 26.4389 12.405 25.4119 11.1065 25.4119C9.80809 25.4119 8.75549 26.4389 8.75549 27.7059C8.75549 28.9728 9.80809 29.9999 11.1065 29.9999Z" fill="#F1F1F1"/>
<path d="M25.3905 29.9999C26.6889 29.9999 27.7415 28.9728 27.7415 27.7059C27.7415 26.4389 26.6889 25.4119 25.3905 25.4119C24.092 25.4119 23.0394 26.4389 23.0394 27.7059C23.0394 28.9728 24.092 29.9999 25.3905 29.9999Z" fill="#F1F1F1"/>
<path d="M31.7434 2.84897C31.6462 2.73202 31.5236 2.63753 31.3845 2.5723C31.2453 2.50708 31.0932 2.47273 30.9388 2.47174H9.18396L9.86314 4.51087H29.57L26.7801 16.7457H11.1066L6.33138 1.99254C6.27973 1.83599 6.19003 1.69396 6.06995 1.57857C5.94986 1.46317 5.80295 1.37783 5.64174 1.32982L1.35765 0.0451701C1.22592 0.00567215 1.0875 -0.00812198 0.95031 0.00457515C0.813117 0.0172723 0.67983 0.0562121 0.55806 0.119171C0.312134 0.246323 0.128046 0.463592 0.0462941 0.723181C-0.0354578 0.982771 -0.00817731 1.26342 0.122134 1.50338C0.252446 1.74334 0.475114 1.92297 0.741154 2.00274L4.49235 3.12426L9.28845 17.908L7.57481 19.2742L7.43897 19.4067C7.01509 19.8834 6.77483 20.4893 6.75958 21.1202C6.74432 21.7511 6.95502 22.3674 7.35538 22.863C7.64018 23.201 8.00208 23.4692 8.41213 23.6462C8.82218 23.8233 9.26901 23.9042 9.71686 23.8826H27.1563C27.4334 23.8826 27.6992 23.7752 27.8951 23.584C28.0911 23.3928 28.2012 23.1335 28.2012 22.863C28.2012 22.5926 28.0911 22.3333 27.8951 22.1421C27.6992 21.9509 27.4334 21.8435 27.1563 21.8435H9.54967C9.42935 21.8395 9.31212 21.8053 9.20931 21.7441C9.10649 21.683 9.02157 21.597 8.96275 21.4945C8.90392 21.392 8.87318 21.2765 8.87349 21.159C8.87381 21.0415 8.90516 20.9261 8.96453 20.8239L11.4827 18.7848H27.616C27.8576 18.7905 28.0937 18.7144 28.2842 18.5695C28.4747 18.4245 28.6078 18.2195 28.6609 17.9895L31.9733 3.71561C32.005 3.56361 32.0009 3.40654 31.961 3.25636C31.9212 3.10618 31.8467 2.96685 31.7434 2.84897Z" fill="#F1F1F1"/>
</svg>
