<svg width="101" height="100" viewBox="0 0 101 100" fill="none" xmlns="http://www.w3.org/2000/svg">
<path d="M63.8969 5.43893C62.2144 3.71724 60.2047 2.34919 57.986 1.41517C55.7672 0.481147 53.3842 0 50.9768 0C48.5695 0 46.1864 0.481147 43.9676 1.41517C41.7489 2.34919 39.7392 3.71724 38.0568 5.43893L34.1689 9.42658L28.6058 9.35783C26.1978 9.32933 23.8083 9.78258 21.578 10.6909C19.3477 11.5993 17.3215 12.9444 15.6186 14.6471C13.9157 16.3499 12.5706 18.376 11.6622 20.6061C10.7537 22.8363 10.3005 25.2256 10.329 27.6335L10.3915 33.1962L6.41607 37.0839C4.69428 38.7663 3.32614 40.7758 2.39206 42.9944C1.45798 45.213 0.976807 47.5959 0.976807 50.0031C0.976807 52.4103 1.45798 54.7932 2.39206 57.0118C3.32614 59.2305 4.69428 61.24 6.41607 62.9224L10.3977 66.81L10.329 72.3727C10.3005 74.7806 10.7537 77.1699 11.6622 79.4001C12.5706 81.6303 13.9157 83.6563 15.6186 85.3591C17.3215 87.0619 19.3477 88.407 21.578 89.3153C23.8083 90.2237 26.1978 90.6769 28.6058 90.6484L34.1689 90.5859L38.0568 94.5611C39.7392 96.2828 41.7489 97.6508 43.9676 98.5848C46.1864 99.5189 48.5695 100 50.9768 100C53.3842 100 55.7672 99.5189 57.986 98.5848C60.2047 97.6508 62.2144 96.2828 63.8969 94.5611L67.7848 90.5797L73.3478 90.6484C75.7559 90.6769 78.1453 90.2237 80.3756 89.3153C82.606 88.407 84.6321 87.0619 86.335 85.3591C88.0379 83.6563 89.3831 81.6303 90.2915 79.4001C91.1999 77.1699 91.6532 74.7806 91.6246 72.3727L91.5621 66.81L95.5375 62.9224C97.2593 61.24 98.6275 59.2305 99.5615 57.0118C100.496 54.7932 100.977 52.4103 100.977 50.0031C100.977 47.5959 100.496 45.213 99.5615 42.9944C98.6275 40.7758 97.2593 38.7663 95.5375 37.0839L91.5559 33.1962L91.6246 27.6335C91.6532 25.2256 91.1999 22.8363 90.2915 20.6061C89.3831 18.376 88.0379 16.3499 86.335 14.6471C84.6321 12.9444 82.606 11.5993 80.3756 10.6909C78.1453 9.78258 75.7559 9.32933 73.3478 9.35783L67.7848 9.42033L63.8969 5.44518V5.43893ZM65.6908 42.8404L46.9389 61.5911C46.6486 61.8821 46.3037 62.113 45.924 62.2705C45.5443 62.4281 45.1373 62.5092 44.7262 62.5092C44.3151 62.5092 43.908 62.4281 43.5283 62.2705C43.1487 62.113 42.8038 61.8821 42.5135 61.5911L33.1375 52.2157C32.8469 51.9251 32.6164 51.5802 32.4592 51.2006C32.3019 50.8209 32.221 50.414 32.221 50.0031C32.221 49.5922 32.3019 49.1853 32.4592 48.8057C32.6164 48.426 32.8469 48.0811 33.1375 47.7905C33.4281 47.5 33.7731 47.2695 34.1527 47.1122C34.5324 46.955 34.9393 46.8741 35.3502 46.8741C35.7612 46.8741 36.1681 46.955 36.5478 47.1122C36.9274 47.2695 37.2724 47.5 37.563 47.7905L44.7262 54.9596L61.2653 38.4152C61.8522 37.8284 62.6481 37.4987 63.4781 37.4987C64.308 37.4987 65.1039 37.8284 65.6908 38.4152C66.2776 39.002 66.6073 39.7979 66.6073 40.6278C66.6073 41.4576 66.2776 42.2535 65.6908 42.8404Z" fill="#FDA403"/>
</svg>
