<svg width="146" height="98" viewBox="0 0 146 98" fill="none" xmlns="http://www.w3.org/2000/svg">
<path d="M73.1347 31.8694C81.9127 31.8694 88.9913 24.7902 88.9913 16.0128C88.9913 7.23532 81.9688 0.156128 73.1347 0.156128C64.3566 0.156128 57.278 7.23532 57.278 16.0128C57.3341 24.8475 64.4133 31.8694 73.1347 31.8694ZM36.3243 77.7977H7.83872C-1.39191 77.7977 -1.90174 63.6966 8.00867 63.6966H32.6994L46.8572 42.8561C51.048 37.1365 55.8052 34.418 62.5439 34.418H83.6676C90.4069 34.418 95.1636 36.9099 99.3543 42.8561L113.569 63.6966H138.43C148.397 63.6966 147.774 77.7977 138.77 77.7977H110.284C108.019 77.7977 105.301 77.0047 103.715 74.57L92.8416 59.0532L92.785 97.9024H53.8231L53.7665 59.0532L42.8931 74.57C41.3075 76.948 38.5896 77.7977 36.3243 77.7977Z" fill="#FDA403"/>
<path d="M129.033 54.2271C138.271 54.2271 145.821 46.7271 145.821 37.4392C145.821 28.1514 138.321 20.6514 129.033 20.6514C119.745 20.6514 112.295 28.2011 112.295 37.4889C112.295 46.7271 119.795 54.2271 129.033 54.2271ZM128.106 38.8629C125.027 37.7866 123.106 36.2306 123.106 33.4658C123.106 30.9161 124.794 28.9126 127.891 28.2837V25.519H130.209V28.1514C132.129 28.1514 133.52 28.5485 134.546 29.0953L133.602 32.4063C132.84 32.0918 131.599 31.5618 129.894 31.5618C128.188 31.5618 127.261 32.4063 127.261 33.2502C127.261 34.4092 128.338 34.856 130.656 35.7999C133.818 36.9589 135.291 38.5647 135.291 41.197C135.291 43.8294 133.686 45.8329 130.291 46.5941V49.2265H127.973V46.6768C125.97 46.6768 123.95 46.1467 122.973 45.6005L123.818 42.2063C124.894 42.7363 126.583 43.3652 128.371 43.3652C130.291 43.3652 131.235 42.5207 131.235 41.3618C131.235 40.2028 130.324 39.7242 128.106 38.8629Z" fill="#F1F1F1"/>
<path d="M23.2665 29.066L16.3735 38.5891L11.9654 33.8001C11.4758 33.2561 11.4937 32.4394 12.0197 31.9134C12.5636 31.4238 13.3804 31.4417 13.9064 31.9677L16.1376 34.3804L21.1081 27.5238C21.5434 26.9434 22.3596 26.7799 22.9763 27.2157C23.5573 27.633 23.7024 28.4856 23.2665 29.066ZM33.7515 35.7775C34.6584 36.6481 34.2411 38.1718 33.044 38.4619L28.8717 39.5325L30.0509 43.6683C30.3775 44.8654 29.2526 45.9718 28.0735 45.6457L24.0104 44.4851L29.8151 56.04L24.9717 54.6614L23.6295 59.1417L17.2081 46.3348L10.7867 59.1411L9.44455 54.6608L4.6012 56.0394L10.4058 44.4845L6.34282 45.6452C5.14571 45.9718 4.03935 44.8469 4.36536 43.6677L5.54455 39.5319L1.3723 38.4625C0.175187 38.1723 -0.242154 36.6486 0.664782 35.7781L3.71218 32.7851L0.646285 29.792C-0.260651 28.9215 0.15669 27.3978 1.3538 27.1076L5.52605 26.0371L4.34686 21.9012C4.02027 20.7041 5.14513 19.5978 6.32432 19.9238L10.4602 21.103L11.5307 16.9307C11.8209 15.7336 13.381 15.3342 14.2151 16.2232L17.2081 19.307L20.2012 16.2232C21.0538 15.3163 22.5954 15.7515 22.8856 16.9307L23.9561 21.103L28.0919 19.9238C29.2891 19.5972 30.3954 20.722 30.0694 21.9012L28.8902 26.0371L33.0625 27.1076C34.2596 27.3978 34.6769 28.9215 33.77 29.792L30.7041 32.7851L33.7515 35.7775ZM27.6023 32.7845C27.6023 27.2336 23.0856 22.7533 17.5711 22.7533C12.0203 22.7533 7.53993 27.2521 7.53993 32.8024C7.53993 38.3527 12.0203 42.8336 17.5711 42.8336C23.122 42.8336 27.6023 38.3353 27.6023 32.7845Z" fill="#F1F1F1"/>
</svg>
