<svg width="71" height="70" viewBox="0 0 71 70" fill="none" xmlns="http://www.w3.org/2000/svg">
<path d="M69.2952 35C69.2952 53.7802 54.1116 69 35.3874 69C16.6631 69 1.47961 53.7802 1.47961 35C1.47961 16.2198 16.6631 1 35.3874 1C54.1116 1 69.2952 16.2198 69.2952 35Z" stroke="#F1F1F1" stroke-width="2"/>
<path d="M34.8392 42.7142C33.3175 42.7142 31.83 42.2618 30.5647 41.4141C29.2994 40.5665 28.3133 39.3617 27.7309 37.9521C27.1486 36.5425 26.9962 34.9914 27.2931 33.495C27.59 31.9985 28.3228 30.624 29.3988 29.5451C30.4748 28.4662 31.8457 27.7315 33.3382 27.4339C34.8307 27.1362 36.3777 27.289 37.7836 27.8729C39.1895 28.4567 40.3911 29.4455 41.2365 30.7141C42.0819 31.9827 42.5332 33.4742 42.5332 34.9999C42.5442 36.016 42.3527 37.0241 41.9699 37.965C41.5871 38.906 41.0208 39.7608 40.3042 40.4793C39.5875 41.1978 38.735 41.7657 37.7965 42.1494C36.8581 42.5332 35.8527 42.7252 34.8392 42.7142ZM34.8392 29.8571C34.1614 29.8416 33.4875 29.9641 32.8582 30.217C32.2289 30.47 31.6573 30.8483 31.1779 31.3289C30.6985 31.8096 30.3212 32.3827 30.0689 33.0137C29.8166 33.6446 29.6945 34.3203 29.7099 34.9999C29.6945 35.6795 29.8166 36.3552 30.0689 36.9862C30.3212 37.6171 30.6985 38.1902 31.1779 38.6709C31.6573 39.1516 32.2289 39.5298 32.8582 39.7828C33.4875 40.0358 34.1614 40.1583 34.8392 40.1428C35.517 40.1583 36.1909 40.0358 36.8202 39.7828C37.4495 39.5298 38.0211 39.1516 38.5005 38.6709C38.98 38.1902 39.3572 37.6171 39.6095 36.9862C39.8618 36.3552 39.984 35.6795 39.9685 34.9999C39.984 34.3203 39.8618 33.6446 39.6095 33.0137C39.3572 32.3827 38.98 31.8096 38.5005 31.3289C38.0211 30.8483 37.4495 30.47 36.8202 30.217C36.1909 29.9641 35.517 29.8416 34.8392 29.8571Z" fill="#F1F1F1"/>
<path d="M51.9005 28.628L48.8742 23.372C48.5779 22.8567 48.1125 22.4604 47.5573 22.2507C47.0021 22.0411 46.3916 22.0312 45.8299 22.2226L42.7087 23.2807C42.1708 22.9176 41.6087 22.592 41.0263 22.3061L40.3813 19.0674C40.2651 18.4843 39.9508 17.9596 39.4921 17.5826C39.0334 17.2057 38.4585 16.9998 37.8654 17H31.8128C31.2197 16.9998 30.6448 17.2057 30.1861 17.5826C29.7274 17.9596 29.4131 18.4843 29.2969 19.0674L28.6519 22.3061C28.0629 22.5889 27.4943 22.9124 26.9502 23.2743L23.847 22.2226C23.2856 22.0318 22.6757 22.0421 22.1211 22.2517C21.5665 22.4613 21.1015 22.8572 20.8053 23.372L17.779 28.628C17.4826 29.1427 17.3731 29.7444 17.4692 30.3309C17.5652 30.9173 17.861 31.4523 18.3061 31.8449L20.7822 34.0267C20.7604 34.3507 20.7335 34.6721 20.7335 35C20.7335 35.3317 20.7463 35.6596 20.7694 35.9849L18.3073 38.1551C17.8618 38.5473 17.5656 39.0822 17.4691 39.6687C17.3725 40.2551 17.4816 40.8571 17.7777 41.372L20.804 46.628C21.1001 47.1436 21.5654 47.5401 22.1206 47.75C22.6758 47.9599 23.2864 47.97 23.8483 47.7787L26.9695 46.7193C27.5072 47.0831 28.0693 47.4091 28.6519 47.6951L29.2969 50.9326C29.4131 51.5157 29.7274 52.0404 30.1861 52.4174C30.6448 52.7943 31.2197 53.0002 31.8128 53H37.4038V50.4286H31.8128L30.9024 45.8643C29.6429 45.3952 28.4737 44.7114 27.4465 43.8431L23.0263 45.3423L20 40.0863L23.4944 37.007C23.2553 35.6774 23.2522 34.3159 23.4854 32.9853L20 29.9137L23.0263 24.6577L27.4208 26.1491C28.4554 25.2797 29.6337 24.5982 30.9024 24.1357L31.8128 19.5714H37.8654L38.7758 24.1357C40.0353 24.6049 41.2044 25.2886 42.2317 26.1569L46.6519 24.6577L49.6782 29.9137L46.0902 33.0663L47.7803 35L51.3708 31.8449C51.8164 31.4527 52.1126 30.9178 52.2091 30.3313C52.3057 29.7449 52.1966 29.1429 51.9005 28.628Z" fill="#F1F1F1"/>
<path d="M43.8155 48.0884L40.4942 44.7584L38.6862 46.5712L43.8155 51.7141L52.7917 42.7141L50.9837 40.9012L43.8155 48.0884Z" fill="#FDA403"/>
</svg>
