<svg width="25" height="25" viewBox="0 0 25 25" fill="none" xmlns="http://www.w3.org/2000/svg">
<path d="M21.25 7.75H25V10.25H21.25V14H18.75V10.25H15V7.75H18.75V4H21.25V7.75Z" fill="#C3C3C3"/>
<path d="M7.5 22.5H12.5C12.5 23.875 11.375 25 10 25C8.625 25 7.5 23.875 7.5 22.5ZM12.5 8.75C12.5 12.0125 14.5875 14.7875 17.5 15.825V18.75H20V21.25H0V18.75H2.5V10C2.5 6.5125 4.8875 3.575 8.125 2.75V1.875C8.125 0.8375 8.9625 0 10 0C11.0375 0 11.875 0.8375 11.875 1.875V2.75C12.7625 2.975 13.575 3.3625 14.3125 3.875C13.1366 5.22609 12.4923 6.95885 12.5 8.75Z" fill="#1F1F1F"/>
</svg>
