<svg width="71" height="70" viewBox="0 0 71 70" fill="none" xmlns="http://www.w3.org/2000/svg">
<path d="M69.4967 35C69.4967 53.7802 54.3132 69 35.5889 69C16.8647 69 1.68115 53.7802 1.68115 35C1.68115 16.2198 16.8647 1 35.5889 1C54.3132 1 69.4967 16.2198 69.4967 35Z" stroke="#F1F1F1" stroke-width="2"/>
<path fill-rule="evenodd" clip-rule="evenodd" d="M40.6902 20.653L38.6232 18.5288L40.2279 16.9581L41.6238 18.3915L43.6213 18.3668C44.4859 18.3565 45.3438 18.5197 46.1446 18.8467C46.9454 19.1738 47.6729 19.658 48.2843 20.2711C48.8957 20.8841 49.3787 21.6135 49.7049 22.4164C50.0311 23.2193 50.1938 24.0795 50.1836 24.9464L50.1611 26.9491L51.5885 28.3488C52.2067 28.9545 52.698 29.678 53.0333 30.4767C53.3687 31.2755 53.5415 32.1334 53.5415 33C53.5415 33.8666 53.3687 34.7246 53.0333 35.5233C52.698 36.322 52.2067 37.0455 51.5885 37.6512L50.1589 39.0509L50.1836 41.0536C50.1938 41.9205 50.0311 42.7807 49.7049 43.5836C49.3787 44.3865 48.8957 45.1159 48.2843 45.729C47.6729 46.342 46.9454 46.8263 46.1446 47.1533C45.3438 47.4803 44.4859 47.6435 43.6213 47.6332L41.6238 47.6107L40.2279 49.0419C39.6238 49.6617 38.9022 50.1542 38.1056 50.4905C37.3089 50.8268 36.4533 51 35.5889 51C34.7246 51 33.8689 50.8268 33.0723 50.4905C32.2756 50.1542 31.5541 49.6617 30.95 49.0419L29.554 47.6085L27.5566 47.6332C26.692 47.6435 25.834 47.4803 25.0332 47.1533C24.2324 46.8263 23.5049 46.342 22.8935 45.729C22.2821 45.1159 21.7991 44.3865 21.4729 43.5836C21.1468 42.7807 20.984 41.9205 20.9943 41.0536L21.0167 39.0509L19.5893 37.6512C18.9711 37.0455 18.4799 36.322 18.1445 35.5233C17.8091 34.7246 17.6364 33.8666 17.6364 33C17.6364 32.1334 17.8091 31.2755 18.1445 30.4767C18.4799 29.678 18.9711 28.9545 19.5893 28.3488L21.0189 26.9491L20.9943 24.9464C20.984 24.0795 21.1468 23.2193 21.4729 22.4164C21.7991 21.6135 22.2821 20.8841 22.8935 20.2711C23.5049 19.658 24.2324 19.1738 25.0332 18.8467C25.834 18.5197 26.692 18.3565 27.5566 18.3668L29.554 18.3893L30.95 16.9581C31.5541 16.3383 32.2756 15.8458 33.0723 15.5095C33.8689 15.1732 34.7246 15 35.5889 15C36.4533 15 37.3089 15.1732 38.1056 15.5095C38.9022 15.8458 39.6238 16.3383 40.2279 16.9581L38.6232 18.5288C38.2281 18.1233 37.7562 17.801 37.2351 17.581C36.714 17.361 36.1543 17.2477 35.5889 17.2477C35.0235 17.2477 34.4638 17.361 33.9428 17.581C33.4217 17.801 32.9497 18.1233 32.5546 18.5288L30.4899 20.653L27.5274 20.617C26.9622 20.6107 26.4015 20.7176 25.8782 20.9316C25.3548 21.1456 24.8794 21.4624 24.4799 21.8632C24.0803 22.264 23.7647 22.7408 23.5515 23.2657C23.3383 23.7905 23.2319 24.3528 23.2386 24.9194L23.2745 27.8852L21.1558 29.9577C20.7514 30.3538 20.43 30.827 20.2106 31.3495C19.9912 31.8719 19.8781 32.4331 19.8781 33C19.8781 33.5669 19.9912 34.1281 20.2106 34.6505C20.43 35.173 20.7514 35.6462 21.1558 36.0423L23.2745 38.1125L23.2386 41.0828C23.2322 41.6495 23.3389 42.2117 23.5524 42.7364C23.7658 43.2611 24.0817 43.7378 24.4814 44.1384C24.8812 44.539 25.3568 44.8555 25.8802 45.0692C26.4037 45.2829 26.9645 45.3896 27.5297 45.383L30.4876 45.347L32.5546 47.4712C32.9497 47.8767 33.4217 48.199 33.9428 48.419C34.4638 48.639 35.0235 48.7523 35.5889 48.7523C36.1543 48.7523 36.714 48.639 37.2351 48.419C37.7562 48.199 38.2281 47.8767 38.6232 47.4712L40.688 45.347L43.6504 45.383C44.2156 45.3893 44.7763 45.2824 45.2997 45.0684C45.823 44.8544 46.2984 44.5376 46.698 44.1368C47.0975 43.736 47.4132 43.2592 47.6263 42.7343C47.8395 42.2095 47.9459 41.6472 47.9393 41.0806L47.9034 38.1148L50.022 36.0423C50.4264 35.6462 50.7478 35.173 50.9673 34.6505C51.1867 34.1281 51.2997 33.5669 51.2997 33C51.2997 32.4331 51.1867 31.8719 50.9673 31.3495C50.7478 30.827 50.4264 30.3538 50.022 29.9577L47.9034 27.8875L47.9393 24.9172C47.9456 24.3505 47.8389 23.7883 47.6255 23.2636C47.412 22.7389 47.0962 22.2622 46.6964 21.8616C46.2966 21.461 45.8211 21.1445 45.2976 20.9308C44.7741 20.7171 44.2134 20.6104 43.6482 20.617L40.6902 20.653Z" fill="#F1F1F1"/>
<path fill-rule="evenodd" clip-rule="evenodd" d="M40.8719 28.8281C40.9764 28.9326 41.0593 29.0568 41.1159 29.1935C41.1724 29.3302 41.2015 29.4767 41.2015 29.6247C41.2015 29.7727 41.1724 29.9192 41.1159 30.0559C41.0593 30.1926 40.9764 30.3167 40.8719 30.4213L34.139 37.1719C34.0347 37.2767 33.9109 37.3598 33.7746 37.4166C33.6383 37.4733 33.4921 37.5025 33.3445 37.5025C33.1969 37.5025 33.0508 37.4733 32.9144 37.4166C32.7781 37.3598 32.6543 37.2767 32.55 37.1719L29.1836 33.7966C29.0792 33.692 28.9965 33.5678 28.94 33.4311C28.8836 33.2945 28.8545 33.148 28.8545 33C28.8545 32.8521 28.8836 32.7056 28.94 32.5689C28.9965 32.4322 29.0792 32.308 29.1836 32.2034C29.2879 32.0988 29.4118 32.0159 29.5481 31.9592C29.6844 31.9026 29.8305 31.8735 29.9781 31.8735C30.1256 31.8735 30.2717 31.9026 30.408 31.9592C30.5443 32.0159 30.6682 32.0988 30.7725 32.2034L33.3445 34.7845L39.2829 28.8281C39.3872 28.7233 39.511 28.6402 39.6473 28.5835C39.7836 28.5268 39.9298 28.4976 40.0774 28.4976C40.225 28.4976 40.3711 28.5268 40.5075 28.5835C40.6438 28.6402 40.7676 28.7233 40.8719 28.8281Z" fill="#FDA403"/>
</svg>
