<svg width="27" height="30" viewBox="0 0 27 30" fill="none" xmlns="http://www.w3.org/2000/svg">
<path d="M13.3334 13.3334C11.5653 13.3334 9.86962 12.631 8.61937 11.3807C7.36913 10.1305 6.66675 8.4348 6.66675 6.66668C6.66675 4.89857 7.36913 3.20287 8.61937 1.95263C9.86962 0.70238 11.5653 0 13.3334 0C15.1015 0 16.7972 0.70238 18.0475 1.95263C19.2977 3.20287 20.0001 4.89857 20.0001 6.66668C20.0001 8.4348 19.2977 10.1305 18.0475 11.3807C16.7972 12.631 15.1015 13.3334 13.3334 13.3334Z" fill="#F1F1F1"/>
<path d="M0 29.9999V28.3333C0 25.6811 1.05357 23.1376 2.92894 21.2622C4.80431 19.3868 7.34785 18.3333 10 18.3333H16.6667C19.3189 18.3333 21.8624 19.3868 23.7378 21.2622C25.6132 23.1376 26.6667 25.6811 26.6667 28.3333V29.9999" fill="#F1F1F1"/>
</svg>
