<svg width="101" height="100" viewBox="0 0 101 100" fill="none" xmlns="http://www.w3.org/2000/svg">
<path d="M100.016 29.7189C100.008 29.3577 99.9594 28.9986 99.8709 28.6484C99.8359 28.5233 99.7659 28.4032 99.7208 28.2782C99.6158 27.993 99.5208 27.7129 99.3707 27.4527C99.2906 27.3177 99.1806 27.2076 99.0855 27.0776C98.9254 26.8524 98.7704 26.6223 98.5753 26.4272C98.4602 26.3172 98.3101 26.2271 98.1851 26.1221C97.99 25.962 97.8099 25.7869 97.5848 25.6518C97.5648 25.6368 97.5397 25.6368 97.5147 25.6218L97.4747 25.5918L52.5568 0.629065C51.8145 0.217488 50.9799 0.00112178 50.1312 0.000246805C49.2825 -0.000628172 48.4474 0.214017 47.7043 0.624063L2.57631 25.5868C2.56131 25.6018 2.5463 25.6218 2.52129 25.6368L2.47126 25.6568C2.29617 25.7569 2.16611 25.902 2.00102 26.022C1.82093 26.1571 1.63083 26.2771 1.47075 26.4322C1.32067 26.5873 1.20561 26.7674 1.07555 26.9425C0.940479 27.1176 0.790403 27.2727 0.680346 27.4627C0.55028 27.6779 0.480244 27.923 0.385196 28.1581C0.31516 28.3232 0.225115 28.4783 0.180092 28.6584C0.0936951 29.0022 0.0450494 29.3545 0.0350177 29.7089C0.0300152 29.7939 0 29.869 0 29.959V69.9894C0 71.8054 0.985503 73.4812 2.57631 74.3617L47.4892 99.3094L47.4942 99.3144L47.5042 99.3194L47.6043 99.3744C47.8194 99.4945 48.0545 99.5595 48.2796 99.6446C48.4397 99.7096 48.5948 99.7946 48.7649 99.8396C49.595 100.054 50.466 100.054 51.2962 99.8396C51.4612 99.7946 51.6163 99.7096 51.7814 99.6446C52.0065 99.5595 52.2416 99.4995 52.4567 99.3744L52.5568 99.3194L52.5668 99.3144L52.5718 99.3094L97.4847 74.3617C99.0655 73.4812 100.051 71.8054 100.051 69.9894V29.959C100.051 29.874 100.021 29.8039 100.016 29.7189ZM49.8854 49.3389L15.2978 29.994L29.1148 22.3501L63.3023 41.8851L49.8854 49.3389ZM50.1256 10.7242L84.7482 29.969L73.5225 36.2072L39.3551 16.6823L50.1256 10.7242ZM10.0051 38.4984L45.023 58.0884V86.5029L10.0051 67.0429V38.4984ZM55.0281 86.5029L55.0381 58.0934L70.0357 49.6991V64.9869L80.0408 59.9843V44.1012L90.0459 38.5034V67.0429L55.0281 86.5029Z" fill="#FDA403"/>
</svg>
