<svg width="100" height="100" viewBox="0 0 100 100" fill="none" xmlns="http://www.w3.org/2000/svg">
<path d="M91.5374 57.4367C90.4102 57.4367 89.4954 58.3493 89.4954 59.4787V95.9162H10.5067V59.4784C10.5067 58.3493 9.59187 57.4364 8.46473 57.4364C7.3376 57.4364 6.42273 58.349 6.42273 59.4784V97.958C6.42273 99.0871 7.3376 100 8.46473 100H91.5374C92.6645 100 93.5794 99.0874 93.5794 97.958V59.4784C93.5794 58.3513 92.6645 57.4367 91.5374 57.4367Z" fill="#FDA403"/>
<path d="M44.9432 57.4366H16.7161C15.5889 57.4366 14.6741 58.3493 14.6741 59.4787C14.6741 60.6078 15.5889 61.5207 16.7161 61.5207H42.9014V71.4607C42.9014 72.5898 43.8163 73.5027 44.9434 73.5027H57.989C59.1161 73.5027 60.031 72.5901 60.031 71.4607V61.5207H83.2861C84.4132 61.5207 85.3281 60.608 85.3281 59.4787C85.3281 58.3495 84.4132 57.4366 83.2861 57.4366H57.9888C56.8616 57.4366 55.9467 58.3493 55.9467 59.4787V69.4186H46.9849V59.4787C46.9852 58.3513 46.0723 57.4366 44.9432 57.4366Z" fill="#F1F1F1"/>
<path d="M97.5282 21.4929H2.47182C1.34468 21.4929 0.42981 22.4055 0.42981 23.5349V51.762C0.42981 52.8912 1.34468 53.804 2.47182 53.804H97.5285C98.6556 53.804 99.5705 52.8914 99.5705 51.762V23.5349C99.5702 22.4058 98.6553 21.4929 97.5282 21.4929ZM95.4864 49.7203H4.51357V25.5769H95.4862C95.4864 25.5769 95.4864 49.7203 95.4864 49.7203Z" fill="#FDA403"/>
<path d="M71.2612 16.8457C72.3884 16.8457 73.3033 15.9331 73.3033 14.8037V2.04201C73.3033 0.912861 72.3884 0 71.2612 0H28.7409C27.6137 0 26.6989 0.91261 26.6989 2.04201V14.804C26.6989 15.9331 27.6137 16.846 28.7409 16.846C29.868 16.846 30.7829 15.9334 30.7829 14.804V4.08376H69.2195V14.8037C69.2195 15.9329 70.1341 16.8457 71.2612 16.8457Z" fill="#FDA403"/>
</svg>
