<svg width="70" height="70" viewBox="0 0 70 70" fill="none" xmlns="http://www.w3.org/2000/svg">
<path d="M68.8959 35C68.8959 53.7802 53.7124 69 34.9881 69C16.2638 69 1.08032 53.7802 1.08032 35C1.08032 16.2198 16.2638 1 34.9881 1C53.7124 1 68.8959 16.2198 68.8959 35Z" stroke="#F1F1F1" stroke-width="2"/>
<path d="M43.0508 48.0001L43.2018 47.5001L42.5 48.8972V48.0001H43.2018H44H43.0508ZM44.4749 32.4266C41.7849 24.3972 32.9348 14.4119 32.9348 14.4119C32.9348 14.4119 20.6144 28.3089 20.6144 36.5442C20.6144 43.3589 26.138 48.8972 32.9348 48.8972H33.6329C33.1812 47.5795 32.9348 46.2207 32.9348 44.7795C32.9348 38.2325 38.0683 32.8795 44.4749 32.4266Z" fill="#F1F1F1"/>
<path d="M42.4545 45.9762L38.9227 42.2806L37 44.2925L42.4545 50L52 40.0119L50.0773 38L42.4545 45.9762Z" fill="#FDA403"/>
</svg>
